HIERARCHY
ROOT hip
{
  OFFSET 0 0 0
  CHANNELS 6 Xposition Yposition Zposition Zrotation Yrotation Xrotation
  JOINT abdomen
  {
    OFFSET 0 20.6881 -0.73152
    CHANNELS 3 Zrotation Xrotation Yrotation
    JOINT chest
    {
      OFFSET 0 11.7043 -0.48768
      CHANNELS 3 Zrotation Xrotation Yrotation
      JOINT neck
      {
        OFFSET 0 22.1894 -2.19456
        CHANNELS 3 Zrotation Xrotation Yrotation
        JOINT head
        {
          OFFSET -0.24384 7.07133 1.2192
          CHANNELS 3 Zrotation Xrotation Yrotation
          JOINT leftEye
          {
            OFFSET 4.14528 8.04674 8.04672
            CHANNELS 3 Zrotation Xrotation Yrotation
            End Site
            {
              OFFSET 1 0 0
            }
          }
          JOINT rightEye
          {
            OFFSET -3.6576 8.04674 8.04672
            CHANNELS 3 Zrotation Xrotation Yrotation
            End Site
            {
              OFFSET 1 0 0
            }
          }
        }
      }
      JOINT rCollar
      {
        OFFSET -2.68224 19.2634 -4.8768
        CHANNELS 3 Zrotation Xrotation Yrotation
        JOINT rShldr
        {
          OFFSET -8.77824 -1.95073 1.46304
          CHANNELS 3 Zrotation Xrotation Yrotation
          JOINT rForeArm
          {
            OFFSET -28.1742 -1.7115 0.48768
            CHANNELS 3 Zrotation Xrotation Yrotation
            JOINT rHand
            {
              OFFSET -22.5879 0.773209 7.07136
              CHANNELS 3 Zrotation Xrotation Yrotation
              JOINT rThumb1
              {
                OFFSET -1.2192 -0.487915 3.41376
                CHANNELS 3 Zrotation Xrotation Yrotation
                JOINT rThumb2
                {
                  OFFSET -3.37035 -0.52449 3.41376
                  CHANNELS 3 Zrotation Xrotation Yrotation
                  End Site
                  {
                    OFFSET -1.78271 -1.18214 1.43049
                  }
                }
              }
              JOINT rIndex1
              {
                OFFSET -7.75947 0.938293 5.60832
                CHANNELS 3 Zrotation Xrotation Yrotation
                JOINT rIndex2
                {
                  OFFSET -2.54057 -0.884171 1.56538
                  CHANNELS 3 Zrotation Xrotation Yrotation
                  End Site
                  {
                    OFFSET -1.62519 -0.234802 1.16502
                  }
                }
              }
              JOINT rMid1
              {
                OFFSET -8.24714 1.18213 3.41376
                CHANNELS 3 Zrotation Xrotation Yrotation
                JOINT rMid2
                {
                  OFFSET -3.10165 -0.590103 1.0647
                  CHANNELS 3 Zrotation Xrotation Yrotation
                  End Site
                  {
                    OFFSET -2.48547 -0.328903 0.83742
                  }
                }
              }
              JOINT rRing1
              {
                OFFSET -8.82822 0.546677 1.51678
                CHANNELS 3 Zrotation Xrotation Yrotation
                JOINT rRing2
                {
                  OFFSET -2.60934 -0.819778 -0.0198488
                  CHANNELS 3 Zrotation Xrotation Yrotation
                  End Site
                  {
                    OFFSET -2.33842 -0.294052 0.168128
                  }
                }
              }
              JOINT rPinky1
              {
                OFFSET -8.27202 -0.0477905 -0.4584
                CHANNELS 3 Zrotation Xrotation Yrotation
                JOINT rPinky2
                {
                  OFFSET -1.82734 -0.647385 -0.700984
                  CHANNELS 3 Zrotation Xrotation Yrotation
                  End Site
                  {
                    OFFSET -1.69225 -0.51767 -0.607171
                  }
                }
              }
            }
          }
        }
      }
      JOINT lCollar
      {
        OFFSET 2.68224 19.2634 -4.8768
        CHANNELS 3 Zrotation Xrotation Yrotation
        JOINT lShldr
        {
          OFFSET 8.77824 -1.95073 1.46304
          CHANNELS 3 Zrotation Xrotation Yrotation
          JOINT lForeArm
          {
            OFFSET 28.1742 -1.7115 0.48768
            CHANNELS 3 Zrotation Xrotation Yrotation
            JOINT lHand
            {
              OFFSET 22.5879 0.773209 7.07136
              CHANNELS 3 Zrotation Xrotation Yrotation
              JOINT lThumb1
              {
                OFFSET 1.2192 -0.487915 3.41376
                CHANNELS 3 Zrotation Xrotation Yrotation
                JOINT lThumb2
                {
                  OFFSET 3.37035 -0.52449 3.41376
                  CHANNELS 3 Zrotation Xrotation Yrotation
                  End Site
                  {
                    OFFSET 1.78271 -1.18214 1.43049
                  }
                }
              }
              JOINT lIndex1
              {
                OFFSET 7.75947 0.938293 5.60832
                CHANNELS 3 Zrotation Xrotation Yrotation
                JOINT lIndex2
                {
                  OFFSET 2.54057 -0.884171 1.56538
                  CHANNELS 3 Zrotation Xrotation Yrotation
                  End Site
                  {
                    OFFSET 1.62519 -0.234802 1.16502
                  }
                }
              }
              JOINT lMid1
              {
                OFFSET 8.24714 1.18213 3.41376
                CHANNELS 3 Zrotation Xrotation Yrotation
                JOINT lMid2
                {
                  OFFSET 3.10165 -0.590103 1.0647
                  CHANNELS 3 Zrotation Xrotation Yrotation
                  End Site
                  {
                    OFFSET 2.48547 -0.328903 0.83742
                  }
                }
              }
              JOINT lRing1
              {
                OFFSET 8.82822 0.546677 1.51678
                CHANNELS 3 Zrotation Xrotation Yrotation
                JOINT lRing2
                {
                  OFFSET 2.60934 -0.819778 -0.0198488
                  CHANNELS 3 Zrotation Xrotation Yrotation
                  End Site
                  {
                    OFFSET 2.33842 -0.294052 0.168128
                  }
                }
              }
              JOINT lPinky1
              {
                OFFSET 8.27202 -0.0477905 -0.4584
                CHANNELS 3 Zrotation Xrotation Yrotation
                JOINT lPinky2
                {
                  OFFSET 1.82734 -0.647385 -0.700984
                  CHANNELS 3 Zrotation Xrotation Yrotation
                  End Site
                  {
                    OFFSET 1.69225 -0.51767 -0.607171
                  }
                }
              }
            }
          }
        }
      }
    }
  }
  JOINT rButtock
  {
    OFFSET -8.77824 4.35084 1.2192
    CHANNELS 3 Zrotation Xrotation Yrotation
    JOINT rThigh
    {
      OFFSET 0 -1.70687 -2.19456
      CHANNELS 3 Zrotation Xrotation Yrotation
      JOINT rShin
      {
        OFFSET 0 -36.8199 0.73152
        CHANNELS 3 Zrotation Xrotation Yrotation
        JOINT rFoot
        {
          OFFSET 0.73152 -45.1104 -5.12064
          CHANNELS 3 Zrotation Xrotation Yrotation
          End Site
          {
            OFFSET -1.1221 -3.69964 12.103
          }
        }
      }
    }
  }
  JOINT lButtock
  {
    OFFSET 8.77824 4.35084 1.2192
    CHANNELS 3 Zrotation Xrotation Yrotation
    JOINT lThigh
    {
      OFFSET 0 -1.70687 -2.19456
      CHANNELS 3 Zrotation Xrotation Yrotation
      JOINT lShin
      {
        OFFSET 0 -36.8199 0.73152
        CHANNELS 3 Zrotation Xrotation Yrotation
        JOINT lFoot
        {
          OFFSET -0.73152 -45.1104 -5.12064
          CHANNELS 3 Zrotation Xrotation Yrotation
          End Site
          {
            OFFSET 1.1221 -3.69964 12.103
          }
        }
      }
    }
  }
}
MOTION
Frames:	8
Frame Time:	0.00833333
0.0 0.0 0.0 0.0 0.0 0.0 0.0 0.0 0.0 0.0 0.0 0.0 0.0 0.0 0.0 0.0 0.0 0.0 0.0 0.0 0.0 0.0 0.0 0.0 0.0 0.0 0.0 0.0 0.0 0.0 0.0 0.0 0.0 0.0 0.0 0.0 0.0 0.0 0.0 0.0 0.0 0.0 0.0 0.0 0.0 0.0 0.0 0.0 0.0 0.0 0.0 0.0 0.0 0.0 0.0 0.0 0.0 0.0 0.0 0.0 0.0 0.0 0.0 0.0 0.0 0.0 0.0 0.0 0.0 0.0 0.0 0.0 0.0 0.0 0.0 0.0 0.0 0.0 0.0 0.0 0.0 0.0 0.0 0.0 0.0 0.0 0.0 0.0 0.0 0.0 0.0 0.0 0.0 0.0 0.0 0.0 0.0 0.0 0.0 0.0 0.0 0.0 0.0 0.0 0.0 0.0 0.0 0.0 0.0 0.0 0.0 0.0 0.0 0.0 0.0 0.0 0.0 0.0 0.0 0.0 0.0 0.0 0.0 0.0 0.0 0.0 0.0 0.0 0.0 0.0 0.0 0.0
-4.25155 54.7728 -203.53499999999997 0.0 -0.0 0.0 -0.0 -0.0 -0.0 0.0 0.0 -0.0 9.327546 2.985571 58.051629 -7.479407 6.334405 -57.880786 -0.0 0.0 -0.0 -0.0 0.0 -0.0 -153.578749 7.463415 159.321023 75.736149 -75.382541 52.735972 -16.355224 -79.053396 -20.744233 1.284702 -4.078964 0.185509 71.831195 -48.263725 25.791675 -14.185033 -32.13274 -27.166272 -4.706866 7.223928 2.854949 -178.411012 -20.670638 110.671782 -160.826363 -7.141801 143.31627 -15.400277 42.585698 15.157632 -0.014868 -1.323148 -0.415899 -33.034779 72.283666 35.863677 -80.939074 -51.227554 -79.359772 0.570322 -8.496623 -1.340377 157.797051 -22.115459 -165.467367 -8.698466 16.805924 -20.923339 -9.073418 -50.425945 29.657868 -171.93531 -12.828821 -144.3254 -178.475877 -18.892669 -89.013166 77.672598 10.490492 -23.879355 145.489151 -6.527846 -118.750759 172.687325 -53.047678 -115.18324 0.571049 1.648356 -0.322148 174.084979 -28.055328 -144.331468 -0.004561 0.876454 -0.275323 16.103537 61.965394 -18.344437 81.323898 -51.182704 79.740822 84.581054 -55.303522 85.214561 -180.0 75.749642 -0.0 -180.0 73.473292 -180.0 5.025459 -5.947284 123.870029 -1.319393 -7.283167 59.66918 -180.0 75.749642 -0.0 -180.0 73.473292 -180.0 5.864878 -4.414665 123.647879 -10.335123 -30.278116 64.516666
-4.27394 54.7829 -203.54100000000003 0.0 -0.0 0.0 -0.0 -4.771896 -180.0 0.0 -4.771896 -180.0 12.076931 10.538806 104.787978 -7.087137 14.355986 -105.012253 -0.0 -0.0 0.0 -0.0 -0.0 0.0 3.542039 -62.05305 -13.039183 -179.033765 -14.577156 165.893241 110.618214 72.610325 -132.607617 -165.659392 46.564268 139.036425 -0.491581 0.484673 0.077556 66.997358 -78.746013 -0.068282 -162.783434 -37.706827 122.63943 2.700284 30.857742 3.08555 -89.835461 60.702148 81.262754 -7.133936 30.173559 4.0793 -70.379629 -72.130165 -87.279981 7.665081 29.708368 11.612955 -81.323898 -51.182704 -79.740822 -145.650153 9.875163 -144.728334 33.837732 -85.66573 55.255002 1.946732 6.306312 -17.604482 164.075313 -6.564674 -153.444759 -128.760344 -65.176789 -111.148199 7.758532 7.439094 -1.682075 58.87645 25.32875 -55.911705 124.893263 21.79101 -105.251057 160.968223 -25.662123 -125.61177 -17.125914 -49.945484 2.058467 10.492358 25.256337 -8.657314 145.119721 0.310087 179.225753 49.060629 87.699854 -72.61446 -17.86964 62.502088 -12.925135 -15.151618 41.863097 -4.738354 -180.0 75.749642 -0.0 -180.0 73.473292 -180.0 5.025459 -5.947284 123.870029 -1.319393 -7.283167 59.66918 -180.0 75.749642 -0.0 -180.0 73.473292 -180.0 5.864878 -4.414665 123.647879 -10.335123 -30.278116 64.516666
-4.2741 54.7998 -203.557 0.0 -0.0 0.0 -0.0 -0.0 -0.0 0.0 0.0 -0.0 2.348711 19.742543 -170.817555 5.72704 19.065302 169.446286 -0.0 0.0 -0.0 -0.0 0.0 -0.0 -142.586389 40.121077 146.977594 22.082363 -5.558969 6.731841 6.326773 39.674838 -35.664265 171.965746 -12.739001 144.335225 -5.433768 5.264911 1.077842 -25.061118 20.039844 24.742336 -160.015165 -33.011829 122.698522 18.615042 8.586046 -6.632705 5.89299 -18.352005 -2.543619 -12.482786 28.686757 8.266891 -145.119466 0.267775 -179.212461 22.375718 33.008474 -5.328353 -155.983352 52.217945 -149.928206 18.804582 42.35488 4.1459 159.220516 -48.028485 -170.415257 164.503651 -3.538009 -157.712414 -164.407446 -10.000403 -153.862363 158.665672 55.54034 -133.904839 162.891538 -0.575714 -89.353363 -109.292177 -58.894665 -77.891544 -37.215945 -57.917763 0.643014 40.377588 38.727186 -33.340405 125.644075 49.839986 -115.274123 7.664143 33.131885 -5.688523 -0.000171 0.022623 -0.007107 0.064697 0.86421 -0.104893 144.645217 10.416426 141.353493 -10.752853 16.560303 -2.394233 -180.0 75.749642 -0.0 -180.0 73.473292 -180.0 5.025459 -5.947284 123.870029 -1.319393 -7.283167 59.66918 -180.0 75.749642 -0.0 -180.0 73.473292 -180.0 5.864878 -4.414665 123.647879 14.394352 18.625466 49.322579
-4.27041 54.81510000000001 -203.573 0.0 -0.0 0.0 -0.0 -0.0 -0.0 0.0 0.0 -0.0 9.327546 2.985571 58.051629 -7.479407 6.334405 -57.880786 -0.0 0.0 -0.0 -0.0 0.0 -0.0 -153.578749 7.463415 159.321023 75.736149 -75.382541 52.735972 -16.355224 -79.053396 -20.744233 1.284702 -4.078964 0.185509 -174.303261 -11.965801 89.864284 177.481475 -18.584485 96.763771 112.65811 -76.285796 61.487487 123.482457 -58.977972 58.53627 0.541241 -1.589941 -0.294737 -164.932426 -0.024208 142.671076 -0.000473 -0.060845 -0.019116 -166.779739 -22.609048 174.41686 8.580128 27.211748 7.533938 -149.731421 10.366336 -142.004015 157.797051 -22.115459 -165.467367 -8.698466 16.805924 -20.923339 -9.073418 -50.425945 29.657868 -171.93531 -12.828821 -144.3254 175.329686 -12.974996 -89.798138 22.259585 -39.630186 -0.967433 157.327488 -28.217551 -122.490444 10.932448 44.027514 -11.691183 -6.908911 -21.623998 2.809719 166.5322 -5.189769 -142.143898 0.000142 -0.018512 0.005816 85.442128 78.755566 -88.512253 -12.252484 41.424931 -10.280249 163.527686 52.314095 146.71366 -180.0 75.749642 -0.0 -180.0 73.473292 -180.0 5.025459 -5.947284 123.870029 -1.319393 -7.283167 59.66918 -180.0 75.749642 -0.0 -180.0 73.473292 -180.0 5.864878 -4.414665 123.647879 -10.335123 -30.278116 64.516666
-4.27242 54.8279 -203.586 0.0 -0.0 0.0 -0.0 -0.0 -0.0 0.0 0.0 -0.0 -8.133567 10.422116 -81.502261 11.496437 6.51512 81.58876 0.0 -0.0 -0.0 0.0 -0.0 -0.0 -142.973735 39.431617 147.390037 -152.876061 -8.760784 171.26332 78.083059 -69.871221 51.370984 -160.577044 53.449864 135.383803 93.028426 -51.083891 40.500925 -14.342302 -71.815269 -43.175956 159.641557 -69.973343 102.396332 16.161158 7.85663 1.519939 -160.573436 -6.359341 143.198121 -2.658279 23.016394 5.271902 -69.84025 -72.122743 -86.714575 -155.515166 -29.396555 168.507705 -124.851156 -29.038378 -122.621388 -145.404742 13.353588 -144.31639 159.220516 -48.028485 -170.415257 -1.798516 18.086937 -22.906726 -24.904053 -79.720929 13.329601 -171.896104 -12.944398 -144.31268 176.59845 -14.213085 -89.690967 103.729343 15.870875 -44.191043 -60.461659 -70.523647 -15.71111 -98.722566 -56.192111 -41.512139 0.057679 0.167876 -0.032027 176.39994 -34.264259 -143.879414 0.000473 -0.060845 0.019116 86.737059 78.733129 -89.81746 25.537984 -38.087442 24.598474 -12.936418 44.257822 -10.724781 -180.0 75.749642 -0.0 -180.0 73.473292 -180.0 -5.864878 -4.414665 -123.647879 5.828746 -19.599706 -62.934765 -180.0 75.749642 -0.0 -180.0 73.473292 -180.0 7.26445 -6.891104 98.805537 78.037268 -74.275227 174.254323
-4.27078 54.8392 -203.59700000000004 0.0 -0.0 0.0 -0.0 -0.0 -0.0 0.0 0.0 -0.0 2.348711 19.742543 -170.817555 5.72704 19.065302 169.446286 -0.0 0.0 -0.0 -0.0 0.0 -0.0 -142.586389 40.121077 146.977594 22.082363 -5.558969 6.731841 6.326773 39.674838 -35.664265 171.965746 -12.739001 144.335225 -5.433768 5.264911 1.077842 -25.061118 20.039844 24.742336 -160.015165 -33.011829 122.698522 18.615042 8.586046 -6.632705 5.89299 -18.352005 -2.543619 -12.482786 28.686757 8.266891 -145.119466 0.267775 -179.212461 22.375718 33.008474 -5.328353 -155.983352 52.217945 -149.928206 18.804582 42.35488 4.1459 159.220516 -48.028485 -170.415257 164.503651 -3.538009 -157.712414 -164.407446 -10.000403 -153.862363 158.665672 55.54034 -133.904839 162.891538 -0.575714 -89.353363 -109.292177 -58.894665 -77.891544 -37.215945 -57.917763 0.643014 40.377588 38.727186 -33.340405 125.644075 49.839986 -115.274123 7.664143 33.131885 -5.688523 -0.000171 0.022623 -0.007107 0.064697 0.86421 -0.104893 144.645217 10.416426 141.353493 -10.752853 16.560303 -2.394233 -180.0 75.749642 -0.0 -180.0 73.473292 -180.0 5.025459 -5.947284 123.870029 -1.319393 -7.283167 59.66918 -180.0 75.749642 -0.0 -180.0 73.473292 -180.0 5.864878 -4.414665 123.647879 -10.335123 -30.278116 64.516666
-4.2684 54.8479 -203.605 0.0 -0.0 0.0 -0.0 -0.0 -0.0 0.0 0.0 -0.0 2.348711 19.742543 -170.817555 5.72704 19.065302 169.446286 -0.0 0.0 -0.0 -0.0 0.0 -0.0 -142.586389 40.121077 146.977594 -152.013847 -2.481509 171.125775 13.753149 1.600386 -1.535025 -17.517753 45.365511 5.704912 -172.745809 -10.423727 89.92934 -7.813669 -50.091919 4.942475 88.792192 -75.499035 40.049684 99.392206 -57.112561 40.366782 -82.840589 61.110826 74.532293 -13.601232 41.013607 9.250262 -0.000142 -0.018512 -0.005816 -3.391572 29.344359 4.679812 -161.040457 68.917197 -151.098866 -22.156602 -36.019909 -24.650147 159.220516 -48.028485 -170.415257 -59.019124 -65.879433 -48.521321 -3.703827 6.153983 33.59274 -169.130466 -20.710404 -143.241608 -4.472905 -4.456037 0.51654 67.834089 30.032221 -60.367639 -60.461659 -70.523647 -15.71111 169.659386 -27.540795 -103.019423 -173.123457 -66.297779 -137.614274 -3.416429 2.512565 -3.356784 145.099706 -1.521107 178.650165 -22.217259 29.186676 5.362701 23.552243 -36.485804 22.651099 -1.428822 -0.417276 -1.320336 -180.0 75.749642 -0.0 -180.0 73.473292 -180.0 5.025459 -5.947284 123.870029 -1.319393 -7.283167 59.66918 -180.0 75.749642 -0.0 -180.0 73.473292 -180.0 5.864878 -4.414665 123.647879 -10.335123 -30.278116 64.516666
